<svg width="15" height="12" viewBox="0 0 15 12" fill="none" xmlns="http://www.w3.org/2000/svg">
<rect width="15" height="12" fill="#E5E5E5"/>
<g id="Desktop" clip-path="url(#clip0_0_1)">
<rect width="1920" height="3850" transform="translate(-422 -3615)" fill="#020A18"/>
<g id="Footer">
<g id="Rectangle 53" opacity="0.05" filter="url(#filter0_b_0_1)">
<rect x="-423" y="-271" width="1921" height="508" rx="10" fill="url(#paint0_linear_0_1)"/>
</g>
<g id="Group 76">
<g id="Group 72">
<path id="Vector" d="M2.3 1H12.7C13.415 1 14 1.585 14 2.3V10.1C14 10.815 13.415 11.4 12.7 11.4H2.3C1.585 11.4 1 10.815 1 10.1V2.3C1 1.585 1.585 1 2.3 1Z" stroke="white" stroke-linecap="round" stroke-linejoin="round"/>
<path id="Vector_2" d="M14 2.30005L7.5 6.85005L1 2.30005" stroke="white" stroke-linecap="round" stroke-linejoin="round"/>
</g>
</g>
</g>
</g>
<defs>
<filter id="filter0_b_0_1" x="-623" y="-471" width="2321" height="908" filterUnits="userSpaceOnUse" color-interpolation-filters="sRGB">
<feFlood flood-opacity="0" result="BackgroundImageFix"/>
<feGaussianBlur in="BackgroundImageFix" stdDeviation="100"/>
<feComposite in2="SourceAlpha" operator="in" result="effect1_backgroundBlur_0_1"/>
<feBlend mode="normal" in="SourceGraphic" in2="effect1_backgroundBlur_0_1" result="shape"/>
</filter>
<linearGradient id="paint0_linear_0_1" x1="537.5" y1="-483.864" x2="537.5" y2="1051" gradientUnits="userSpaceOnUse">
<stop stop-color="white" stop-opacity="0.2"/>
<stop offset="1" stop-color="white"/>
</linearGradient>
<clipPath id="clip0_0_1">
<rect width="1920" height="3850" fill="white" transform="translate(-422 -3615)"/>
</clipPath>
</defs>
</svg>
